<svg width="1201" height="940" viewBox="0 0 1201 940" fill="none" xmlns="http://www.w3.org/2000/svg">
<path d="M106.818 0H1200.64V940H106.818V0Z" fill="#FEE2E1"/>
<path fill-rule="evenodd" clip-rule="evenodd" d="M45.768 0L53.5734 22.7349C61.3788 44.5954 76.6348 89.1907 68.8294 134.66C61.3788 179.256 30.512 223.851 26.9641 268.447C23.0614 313.042 45.768 358.512 55.3474 403.107C64.9267 447.702 61.3788 492.298 49.6707 536.893C38.3174 581.488 19.1587 626.958 23.0614 671.554C26.9641 716.149 53.5734 760.744 53.5734 805.34C53.5734 850.809 26.9641 895.405 13.482 917.265L0 940H112.8V917.265C112.8 895.405 112.8 850.809 112.8 805.34C112.8 760.744 112.8 716.149 112.8 671.554C112.8 626.958 112.8 581.488 112.8 536.893C112.8 492.298 112.8 447.702 112.8 403.107C112.8 358.512 112.8 268.447 112.8 268.447C112.8 268.447 112.8 179.256 112.8 134.66C112.8 89.1907 112.8 44.5954 112.8 22.7349V0H45.768Z" fill="#FEE2E1"/>
</svg>
