<svg width="87" height="533" viewBox="0 0 87 533" fill="none" xmlns="http://www.w3.org/2000/svg">
<path fill-rule="evenodd" clip-rule="evenodd" d="M26.3505 0L30.7791 12.8912C35.2077 25.2865 43.8636 50.573 39.435 76.3553C35.2077 101.642 17.6946 126.928 15.6816 152.215C13.4673 177.501 26.3505 203.284 31.7856 228.57C37.2207 253.857 35.2077 279.143 28.5648 304.43C22.1232 329.716 11.253 355.499 13.4673 380.785C15.6816 406.072 30.7791 431.358 30.7791 456.645C30.7791 482.427 15.6816 507.713 8.0322 520.109L0.382812 533H86.5V520.109C86.5 507.713 86.5 482.427 86.5 456.645C86.5 431.358 86.5 406.072 86.5 380.785C86.5 355.499 86.5 329.716 86.5 304.43C86.5 279.143 86.5 253.857 86.5 228.57C86.5 203.284 86.5 152.215 86.5 152.215C86.5 152.215 86.5 101.642 86.5 76.3553C86.5 50.573 86.5 25.2865 86.5 12.8912V0L26.3505 0Z" fill="#FEE2E1"/>
</svg>
